<svg xmlns="http://www.w3.org/2000/svg" shape-rendering="geometricPrecision" text-rendering="geometricPrecision" image-rendering="optimizeQuality" fill-rule="evenodd" clip-rule="evenodd" viewBox="0 0 512 512.003"><path fill-rule="nonzero" d="M190.007 8.703C326.39-27.698 466.709 53.424 503.235 189.766c36.553 136.439-44.573 276.92-181.001 313.472C185.796 539.79 45.315 458.665 8.762 322.237l-.062-.25C-27.694 185.618 53.432 45.296 189.756 8.766l.251-.063zm-29.661 345.148c-8.264-12.834-2.665-23.685 11.051-21.371 56.417 15.236 113.794 15.547 172.179 0 9.6-.79 16.27 10.744 8.6 21.371-50.39 57.211-151.982 52.915-191.83 0zm130.596-121.409c-4.104 5.732-7.094 10.807-8.194 14.76-2.754 9.926 6.784 9.797 13.498 5.987 26.59-15.074 63.349-12.859 90.308.004 15.148 7.227 16.307-3.551 7.678-14.543-33.659-42.889-66.018-44.214-103.29-6.208zM116.7 176.014c-3.673 5.909-11.446 7.718-17.356 4.045-5.909-3.673-7.718-11.446-4.045-17.355 9.397-15.049 26.649-29.012 44.927-39.428 20.67-11.782 43.48-19.344 58.193-19.001 6.943.162 12.439 5.924 12.276 12.867-.162 6.942-5.924 12.439-12.867 12.276-10.39-.243-28.122 6.024-45.178 15.746-15.019 8.56-28.908 19.573-35.95 30.85zm61.54 13.885c18.732 0 33.913 19.408 33.913 43.351 0 23.944-15.181 43.355-33.913 43.355-18.729 0-33.913-19.411-33.913-43.355 0-23.943 15.184-43.351 33.913-43.351zm126.425-18.488c-7.626.93-14.568-4.492-15.498-12.118-.931-7.626 4.492-14.568 12.117-15.498 21.076-2.651 42.14.125 61.566 7.326l.048.019c19.88 7.352 38.181 19.393 53.144 35.002 5.333 5.544 5.16 14.369-.384 19.702-5.544 5.334-14.369 5.161-19.703-.383-11.999-12.516-26.727-22.194-42.764-28.141-15.469-5.746-32.09-7.976-48.526-5.909zM197.448 34.839l-1.351.362C74.684 68.132 2.643 192.941 34.836 314.545l.362 1.351c32.998 121.682 158.245 193.716 280.024 161.092C437.269 444.285 509.68 318.82 476.984 196.779 444.352 74.994 319.337 2.572 197.448 34.839z"/></svg>